<svg width="347" height="274" viewBox="0 0 347 274" fill="none" xmlns="http://www.w3.org/2000/svg">
<path d="M15.694 37.418C12.806 37.418 10.336 36.848 8.284 35.708C6.232 34.568 4.64867 32.972 3.534 30.92C2.44467 28.8427 1.9 26.398 1.9 23.586C1.9 21.4833 2.204 19.596 2.812 17.924C3.44533 16.2267 4.35733 14.7827 5.548 13.592C6.73867 12.376 8.18267 11.4387 9.88 10.78C11.6027 10.1213 13.5407 9.792 15.694 9.792C16.9607 9.792 18.24 9.95667 19.532 10.286C20.8493 10.59 21.9893 11.0333 22.952 11.616C23.5853 11.9707 24.016 12.414 24.244 12.946C24.472 13.478 24.5353 14.01 24.434 14.542C24.358 15.074 24.1427 15.53 23.788 15.91C23.4587 16.29 23.0407 16.5307 22.534 16.632C22.0273 16.7333 21.4573 16.6193 20.824 16.29C20.064 15.834 19.266 15.5047 18.43 15.302C17.594 15.0993 16.7453 14.998 15.884 14.998C14.1867 14.998 12.7553 15.34 11.59 16.024C10.45 16.6827 9.58867 17.6453 9.006 18.912C8.42333 20.1787 8.132 21.7367 8.132 23.586C8.132 25.41 8.42333 26.968 9.006 28.26C9.58867 29.552 10.45 30.54 11.59 31.224C12.7553 31.8827 14.1867 32.212 15.884 32.212C16.6947 32.212 17.518 32.1107 18.354 31.908C19.2153 31.7053 20.0387 31.3887 20.824 30.958C21.4827 30.6287 22.0653 30.5147 22.572 30.616C23.104 30.692 23.5347 30.92 23.864 31.3C24.2187 31.6547 24.434 32.0853 24.51 32.592C24.6113 33.0987 24.5607 33.6053 24.358 34.112C24.1553 34.6187 23.7753 35.0493 23.218 35.404C22.2807 36.0373 21.128 36.5313 19.76 36.886C18.392 37.2407 17.0367 37.418 15.694 37.418ZM36.5346 37.418C34.3306 37.418 32.4306 37.0253 30.8346 36.24C29.264 35.4293 28.048 34.302 27.1866 32.858C26.3506 31.3887 25.9326 29.666 25.9326 27.69C25.9326 25.7647 26.338 24.08 27.1486 22.636C27.9593 21.1667 29.0866 20.0267 30.5306 19.216C32 18.38 33.6593 17.962 35.5086 17.962C36.8513 17.962 38.0673 18.19 39.1566 18.646C40.246 19.0767 41.1833 19.71 41.9686 20.546C42.754 21.3567 43.3493 22.3573 43.7546 23.548C44.16 24.7133 44.3626 26.018 44.3626 27.462C44.3626 27.9433 44.2106 28.3107 43.9066 28.564C43.6026 28.792 43.1593 28.906 42.5766 28.906H30.6446V25.942H40.2206L39.6126 26.474C39.6126 25.4353 39.4606 24.574 39.1566 23.89C38.8526 23.1807 38.4093 22.6487 37.8266 22.294C37.2693 21.9393 36.5726 21.762 35.7366 21.762C34.7993 21.762 34.0013 21.9773 33.3426 22.408C32.684 22.8387 32.1773 23.4593 31.8226 24.27C31.468 25.0807 31.2906 26.056 31.2906 27.196V27.5C31.2906 29.4253 31.734 30.844 32.6206 31.756C33.5326 32.668 34.8753 33.124 36.6486 33.124C37.2566 33.124 37.9533 33.048 38.7386 32.896C39.524 32.744 40.2586 32.5033 40.9426 32.174C41.5253 31.8953 42.0446 31.8067 42.5006 31.908C42.9566 31.984 43.3113 32.1867 43.5646 32.516C43.818 32.8453 43.9573 33.2253 43.9826 33.656C44.0333 34.0867 43.9446 34.5173 43.7166 34.948C43.4886 35.3533 43.1086 35.6953 42.5766 35.974C41.7153 36.4553 40.74 36.81 39.6506 37.038C38.5866 37.2913 37.548 37.418 36.5346 37.418ZM50.5881 37.342C49.6508 37.342 48.9288 37.0887 48.4221 36.582C47.9408 36.0753 47.7001 35.3533 47.7001 34.416V20.926C47.7001 19.9887 47.9408 19.2793 48.4221 18.798C48.9288 18.2913 49.6254 18.038 50.5121 18.038C51.4241 18.038 52.1208 18.2913 52.6021 18.798C53.0834 19.2793 53.3241 19.9887 53.3241 20.926V23.092L52.9061 21.838C53.4888 20.5967 54.3501 19.6467 55.4901 18.988C56.6554 18.304 57.9728 17.962 59.4421 17.962C60.9368 17.962 62.1654 18.2533 63.1281 18.836C64.0908 19.3933 64.8128 20.2547 65.2941 21.42C65.7754 22.56 66.0161 24.0167 66.0161 25.79V34.416C66.0161 35.3533 65.7628 36.0753 65.2561 36.582C64.7748 37.0887 64.0654 37.342 63.1281 37.342C62.2161 37.342 61.5068 37.0887 61.0001 36.582C60.5188 36.0753 60.2781 35.3533 60.2781 34.416V26.056C60.2781 24.764 60.0374 23.8393 59.5561 23.282C59.1001 22.6993 58.3908 22.408 57.4281 22.408C56.2121 22.408 55.2368 22.788 54.5021 23.548C53.7928 24.308 53.4381 25.3213 53.4381 26.588V34.416C53.4381 36.3667 52.4881 37.342 50.5881 37.342ZM79.4577 37.418C77.7097 37.418 76.2404 37.1267 75.0497 36.544C73.8844 35.9613 73.0104 35.1127 72.4277 33.998C71.8704 32.8833 71.5917 31.4773 71.5917 29.78V22.636H69.9957C69.2864 22.636 68.729 22.446 68.3237 22.066C67.9437 21.686 67.7537 21.1667 67.7537 20.508C67.7537 19.7987 67.9437 19.2667 68.3237 18.912C68.729 18.532 69.2864 18.342 69.9957 18.342H71.5917V15.454C71.5917 14.4913 71.845 13.7693 72.3517 13.288C72.8584 12.7813 73.5677 12.528 74.4797 12.528C75.417 12.528 76.1264 12.7813 76.6077 13.288C77.089 13.7693 77.3297 14.4913 77.3297 15.454V18.342H80.9397C81.649 18.342 82.1937 18.532 82.5737 18.912C82.9537 19.2667 83.1437 19.7987 83.1437 20.508C83.1437 21.1667 82.9537 21.686 82.5737 22.066C82.1937 22.446 81.649 22.636 80.9397 22.636H77.3297V29.552C77.3297 30.616 77.5704 31.414 78.0517 31.946C78.5584 32.478 79.3564 32.744 80.4457 32.744C80.8257 32.744 81.1804 32.706 81.5097 32.63C81.839 32.554 82.143 32.5033 82.4217 32.478C82.7764 32.4527 83.0677 32.5667 83.2957 32.82C83.5237 33.048 83.6377 33.5673 83.6377 34.378C83.6377 34.986 83.5364 35.518 83.3337 35.974C83.131 36.43 82.7764 36.7593 82.2697 36.962C81.9404 37.0887 81.4844 37.19 80.9017 37.266C80.3444 37.3673 79.863 37.418 79.4577 37.418ZM88.627 37.342C87.6643 37.342 86.9297 37.0887 86.423 36.582C85.9163 36.0753 85.663 35.3533 85.663 34.416V20.926C85.663 19.9887 85.9037 19.2793 86.385 18.798C86.8917 18.2913 87.5883 18.038 88.475 18.038C89.387 18.038 90.0837 18.2913 90.565 18.798C91.0463 19.2793 91.287 19.9887 91.287 20.926V22.902H90.907C91.211 21.382 91.8823 20.204 92.921 19.368C93.9597 18.532 95.3023 18.0633 96.949 17.962C97.5823 17.9113 98.0637 18.076 98.393 18.456C98.7477 18.8107 98.9377 19.406 98.963 20.242C99.0137 21.0273 98.849 21.648 98.469 22.104C98.1143 22.56 97.5063 22.8387 96.645 22.94L95.771 23.016C94.327 23.1427 93.2503 23.5607 92.541 24.27C91.857 24.9793 91.515 26.0053 91.515 27.348V34.416C91.515 35.3533 91.2617 36.0753 90.755 36.582C90.2737 37.0887 89.5643 37.342 88.627 37.342ZM107.446 37.418C106.078 37.418 104.849 37.152 103.76 36.62C102.67 36.088 101.822 35.366 101.214 34.454C100.606 33.542 100.302 32.516 100.302 31.376C100.302 30.008 100.656 28.9313 101.366 28.146C102.075 27.3353 103.228 26.7653 104.824 26.436C106.42 26.0813 108.535 25.904 111.17 25.904H113.184V28.868H111.208C109.916 28.868 108.864 28.944 108.054 29.096C107.268 29.2227 106.698 29.4507 106.344 29.78C106.014 30.1093 105.85 30.5653 105.85 31.148C105.85 31.8573 106.09 32.44 106.572 32.896C107.078 33.352 107.8 33.58 108.738 33.58C109.472 33.58 110.118 33.4153 110.676 33.086C111.258 32.7313 111.714 32.2627 112.044 31.68C112.373 31.072 112.538 30.388 112.538 29.628V25.258C112.538 24.1433 112.284 23.358 111.778 22.902C111.271 22.4207 110.41 22.18 109.194 22.18C108.51 22.18 107.762 22.2687 106.952 22.446C106.166 22.598 105.292 22.864 104.33 23.244C103.772 23.4973 103.278 23.5607 102.848 23.434C102.417 23.282 102.088 23.0287 101.86 22.674C101.632 22.294 101.518 21.8887 101.518 21.458C101.518 21.002 101.644 20.5713 101.898 20.166C102.151 19.7353 102.569 19.4187 103.152 19.216C104.342 18.7347 105.457 18.4053 106.496 18.228C107.56 18.0507 108.535 17.962 109.422 17.962C111.372 17.962 112.968 18.2533 114.21 18.836C115.476 19.3933 116.426 20.2673 117.06 21.458C117.693 22.6233 118.01 24.1307 118.01 25.98V34.416C118.01 35.3533 117.782 36.0753 117.326 36.582C116.87 37.0887 116.211 37.342 115.35 37.342C114.488 37.342 113.817 37.0887 113.336 36.582C112.88 36.0753 112.652 35.3533 112.652 34.416V33.01L112.918 33.238C112.766 34.0993 112.436 34.8467 111.93 35.48C111.448 36.088 110.828 36.5693 110.068 36.924C109.308 37.2533 108.434 37.418 107.446 37.418ZM129.016 37.418C126.761 37.418 125.077 36.7973 123.962 35.556C122.847 34.2893 122.29 32.4147 122.29 29.932V12.794C122.29 11.8313 122.531 11.1093 123.012 10.628C123.519 10.1213 124.241 9.868 125.178 9.868C126.09 9.868 126.787 10.1213 127.268 10.628C127.775 11.1093 128.028 11.8313 128.028 12.794V29.704C128.028 30.7427 128.243 31.5153 128.674 32.022C129.13 32.5033 129.725 32.744 130.46 32.744C130.663 32.744 130.853 32.7313 131.03 32.706C131.207 32.6807 131.397 32.668 131.6 32.668C132.005 32.6173 132.284 32.744 132.436 33.048C132.613 33.3267 132.702 33.8967 132.702 34.758C132.702 35.518 132.55 36.1007 132.246 36.506C131.942 36.886 131.473 37.1393 130.84 37.266C130.587 37.2913 130.295 37.3167 129.966 37.342C129.637 37.3927 129.32 37.418 129.016 37.418ZM137.832 37.304C136.895 37.304 136.173 37.038 135.666 36.506C135.185 35.9487 134.944 35.176 134.944 34.188V21.192C134.944 20.1787 135.185 19.406 135.666 18.874C136.173 18.3167 136.895 18.038 137.832 18.038C138.744 18.038 139.441 18.3167 139.922 18.874C140.429 19.406 140.682 20.1787 140.682 21.192V34.188C140.682 35.176 140.442 35.9487 139.96 36.506C139.479 37.038 138.77 37.304 137.832 37.304ZM137.832 14.922C136.768 14.922 135.945 14.6813 135.362 14.2C134.805 13.6933 134.526 12.984 134.526 12.072C134.526 11.1347 134.805 10.4253 135.362 9.944C135.945 9.43733 136.768 9.184 137.832 9.184C138.896 9.184 139.707 9.43733 140.264 9.944C140.822 10.4253 141.1 11.1347 141.1 12.072C141.1 12.984 140.822 13.6933 140.264 14.2C139.707 14.6813 138.896 14.922 137.832 14.922ZM146.708 37C146.151 37 145.682 36.8607 145.302 36.582C144.922 36.278 144.669 35.898 144.542 35.442C144.416 34.986 144.416 34.492 144.542 33.96C144.694 33.428 144.986 32.934 145.416 32.478L154.726 21.306V22.636H146.48C145.796 22.636 145.264 22.446 144.884 22.066C144.504 21.686 144.314 21.1667 144.314 20.508C144.314 19.7987 144.504 19.2667 144.884 18.912C145.264 18.532 145.796 18.342 146.48 18.342H157.462C158.146 18.342 158.691 18.494 159.096 18.798C159.502 19.102 159.768 19.482 159.894 19.938C160.046 20.3687 160.059 20.85 159.932 21.382C159.831 21.8887 159.565 22.37 159.134 22.826L149.596 34.226V32.744H158.412C159.856 32.744 160.578 33.4533 160.578 34.872C160.578 35.556 160.388 36.088 160.008 36.468C159.628 36.8227 159.096 37 158.412 37H146.708ZM172.689 37.418C170.485 37.418 168.585 37.0253 166.989 36.24C165.418 35.4293 164.202 34.302 163.341 32.858C162.505 31.3887 162.087 29.666 162.087 27.69C162.087 25.7647 162.492 24.08 163.303 22.636C164.114 21.1667 165.241 20.0267 166.685 19.216C168.154 18.38 169.814 17.962 171.663 17.962C173.006 17.962 174.222 18.19 175.311 18.646C176.4 19.0767 177.338 19.71 178.123 20.546C178.908 21.3567 179.504 22.3573 179.909 23.548C180.314 24.7133 180.517 26.018 180.517 27.462C180.517 27.9433 180.365 28.3107 180.061 28.564C179.757 28.792 179.314 28.906 178.731 28.906H166.799V25.942H176.375L175.767 26.474C175.767 25.4353 175.615 24.574 175.311 23.89C175.007 23.1807 174.564 22.6487 173.981 22.294C173.424 21.9393 172.727 21.762 171.891 21.762C170.954 21.762 170.156 21.9773 169.497 22.408C168.838 22.8387 168.332 23.4593 167.977 24.27C167.622 25.0807 167.445 26.056 167.445 27.196V27.5C167.445 29.4253 167.888 30.844 168.775 31.756C169.687 32.668 171.03 33.124 172.803 33.124C173.411 33.124 174.108 33.048 174.893 32.896C175.678 32.744 176.413 32.5033 177.097 32.174C177.68 31.8953 178.199 31.8067 178.655 31.908C179.111 31.984 179.466 32.1867 179.719 32.516C179.972 32.8453 180.112 33.2253 180.137 33.656C180.188 34.0867 180.099 34.5173 179.871 34.948C179.643 35.3533 179.263 35.6953 178.731 35.974C177.87 36.4553 176.894 36.81 175.805 37.038C174.741 37.2913 173.702 37.418 172.689 37.418ZM203.436 37.418C201.434 37.418 199.686 37.0253 198.192 36.24C196.722 35.4547 195.582 34.3273 194.772 32.858C193.961 31.3887 193.556 29.6533 193.556 27.652C193.556 26.1573 193.784 24.8147 194.24 23.624C194.696 22.4333 195.354 21.42 196.216 20.584C197.102 19.7227 198.154 19.0767 199.37 18.646C200.586 18.19 201.941 17.962 203.436 17.962C205.437 17.962 207.172 18.3547 208.642 19.14C210.136 19.9253 211.289 21.04 212.1 22.484C212.936 23.928 213.354 25.6507 213.354 27.652C213.354 29.172 213.113 30.5273 212.632 31.718C212.176 32.9087 211.517 33.9347 210.656 34.796C209.794 35.6573 208.743 36.316 207.502 36.772C206.286 37.2027 204.93 37.418 203.436 37.418ZM203.436 33.124C204.272 33.124 204.994 32.9213 205.602 32.516C206.21 32.1107 206.691 31.5153 207.046 30.73C207.4 29.9193 207.578 28.8933 207.578 27.652C207.578 25.8027 207.198 24.4473 206.438 23.586C205.678 22.6993 204.677 22.256 203.436 22.256C202.625 22.256 201.903 22.446 201.27 22.826C200.662 23.206 200.18 23.8013 199.826 24.612C199.496 25.3973 199.332 26.4107 199.332 27.652C199.332 29.5013 199.712 30.882 200.472 31.794C201.232 32.6807 202.22 33.124 203.436 33.124ZM11.286 85.418C9.25933 85.418 7.486 85.0253 5.966 84.24C4.47133 83.4293 3.31867 82.2893 2.508 80.82C1.69733 79.3507 1.292 77.6153 1.292 75.614C1.292 74.1193 1.52 72.7767 1.976 71.586C2.432 70.3953 3.09067 69.382 3.952 68.546C4.83867 67.71 5.90267 67.0767 7.144 66.646C8.38533 66.19 9.766 65.962 11.286 65.962C12.0713 65.962 12.9073 66.0633 13.794 66.266C14.6807 66.4433 15.5547 66.76 16.416 67.216C16.9227 67.444 17.2647 67.7733 17.442 68.204C17.6447 68.6093 17.7207 69.04 17.67 69.496C17.6193 69.9267 17.4547 70.3193 17.176 70.674C16.9227 71.0033 16.5933 71.2313 16.188 71.358C15.7827 71.4593 15.3267 71.3833 14.82 71.13C14.3387 70.8513 13.832 70.6487 13.3 70.522C12.7933 70.3953 12.312 70.332 11.856 70.332C11.096 70.332 10.4247 70.4587 9.842 70.712C9.25933 70.94 8.76533 71.282 8.36 71.738C7.98 72.1687 7.676 72.7133 7.448 73.372C7.24533 74.0307 7.144 74.7907 7.144 75.652C7.144 77.324 7.54933 78.6413 8.36 79.604C9.196 80.5413 10.3613 81.01 11.856 81.01C12.312 81.01 12.7933 80.9593 13.3 80.858C13.8067 80.7313 14.3133 80.5287 14.82 80.25C15.3267 79.9967 15.7827 79.9333 16.188 80.06C16.5933 80.1867 16.91 80.4273 17.138 80.782C17.3913 81.1113 17.5307 81.504 17.556 81.96C17.6067 82.3907 17.5307 82.8213 17.328 83.252C17.1507 83.6573 16.8213 83.974 16.34 84.202C15.4787 84.6327 14.6173 84.9367 13.756 85.114C12.8947 85.3167 12.0713 85.418 11.286 85.418ZM28.9474 85.418C26.9461 85.418 25.1981 85.0253 23.7034 84.24C22.2341 83.4547 21.0941 82.3273 20.2834 80.858C19.4727 79.3887 19.0674 77.6533 19.0674 75.652C19.0674 74.1573 19.2954 72.8147 19.7514 71.624C20.2074 70.4333 20.8661 69.42 21.7274 68.584C22.6141 67.7227 23.6654 67.0767 24.8814 66.646C26.0974 66.19 27.4527 65.962 28.9474 65.962C30.9487 65.962 32.6841 66.3547 34.1534 67.14C35.6481 67.9253 36.8007 69.04 37.6114 70.484C38.4474 71.928 38.8654 73.6507 38.8654 75.652C38.8654 77.172 38.6247 78.5273 38.1434 79.718C37.6874 80.9087 37.0287 81.9347 36.1674 82.796C35.3061 83.6573 34.2547 84.316 33.0134 84.772C31.7974 85.2027 30.4421 85.418 28.9474 85.418ZM28.9474 81.124C29.7834 81.124 30.5054 80.9213 31.1134 80.516C31.7214 80.1107 32.2027 79.5153 32.5574 78.73C32.9121 77.9193 33.0894 76.8933 33.0894 75.652C33.0894 73.8027 32.7094 72.4473 31.9494 71.586C31.1894 70.6993 30.1887 70.256 28.9474 70.256C28.1367 70.256 27.4147 70.446 26.7814 70.826C26.1734 71.206 25.6921 71.8013 25.3374 72.612C25.0081 73.3973 24.8434 74.4107 24.8434 75.652C24.8434 77.5013 25.2234 78.882 25.9834 79.794C26.7434 80.6807 27.7314 81.124 28.9474 81.124ZM45.2443 85.342C44.307 85.342 43.585 85.0887 43.0783 84.582C42.597 84.0753 42.3563 83.3533 42.3563 82.416V68.926C42.3563 67.9887 42.597 67.2793 43.0783 66.798C43.585 66.2913 44.2817 66.038 45.1683 66.038C46.0803 66.038 46.777 66.2913 47.2583 66.798C47.7397 67.2793 47.9803 67.9887 47.9803 68.926V71.092L47.5623 69.838C48.145 68.5967 49.0063 67.6467 50.1463 66.988C51.3117 66.304 52.629 65.962 54.0983 65.962C55.593 65.962 56.8217 66.2533 57.7843 66.836C58.747 67.3933 59.469 68.2547 59.9503 69.42C60.4317 70.56 60.6723 72.0167 60.6723 73.79V82.416C60.6723 83.3533 60.419 84.0753 59.9123 84.582C59.431 85.0887 58.7217 85.342 57.7843 85.342C56.8723 85.342 56.163 85.0887 55.6563 84.582C55.175 84.0753 54.9343 83.3533 54.9343 82.416V74.056C54.9343 72.764 54.6937 71.8393 54.2123 71.282C53.7563 70.6993 53.047 70.408 52.0843 70.408C50.8683 70.408 49.893 70.788 49.1583 71.548C48.449 72.308 48.0943 73.3213 48.0943 74.588V82.416C48.0943 84.3667 47.1443 85.342 45.2443 85.342ZM74.114 85.418C72.366 85.418 70.8966 85.1267 69.706 84.544C68.5406 83.9613 67.6666 83.1127 67.084 81.998C66.5266 80.8833 66.248 79.4773 66.248 77.78V70.636H64.652C63.9426 70.636 63.3853 70.446 62.98 70.066C62.6 69.686 62.41 69.1667 62.41 68.508C62.41 67.7987 62.6 67.2667 62.98 66.912C63.3853 66.532 63.9426 66.342 64.652 66.342H66.248V63.454C66.248 62.4913 66.5013 61.7693 67.008 61.288C67.5146 60.7813 68.224 60.528 69.136 60.528C70.0733 60.528 70.7826 60.7813 71.264 61.288C71.7453 61.7693 71.986 62.4913 71.986 63.454V66.342H75.596C76.3053 66.342 76.85 66.532 77.23 66.912C77.61 67.2667 77.8 67.7987 77.8 68.508C77.8 69.1667 77.61 69.686 77.23 70.066C76.85 70.446 76.3053 70.636 75.596 70.636H71.986V77.552C71.986 78.616 72.2266 79.414 72.708 79.946C73.2146 80.478 74.0126 80.744 75.102 80.744C75.482 80.744 75.8366 80.706 76.166 80.63C76.4953 80.554 76.7993 80.5033 77.078 80.478C77.4326 80.4527 77.724 80.5667 77.952 80.82C78.18 81.048 78.294 81.5673 78.294 82.378C78.294 82.986 78.1926 83.518 77.99 83.974C77.7873 84.43 77.4326 84.7593 76.926 84.962C76.5966 85.0887 76.1406 85.19 75.558 85.266C75.0006 85.3673 74.5193 85.418 74.114 85.418ZM83.2832 85.342C82.3206 85.342 81.5859 85.0887 81.0792 84.582C80.5726 84.0753 80.3192 83.3533 80.3192 82.416V68.926C80.3192 67.9887 80.5599 67.2793 81.0412 66.798C81.5479 66.2913 82.2446 66.038 83.1312 66.038C84.0432 66.038 84.7399 66.2913 85.2212 66.798C85.7026 67.2793 85.9432 67.9887 85.9432 68.926V70.902H85.5632C85.8672 69.382 86.5386 68.204 87.5772 67.368C88.6159 66.532 89.9586 66.0633 91.6052 65.962C92.2386 65.9113 92.7199 66.076 93.0492 66.456C93.4039 66.8107 93.5939 67.406 93.6192 68.242C93.6699 69.0273 93.5052 69.648 93.1252 70.104C92.7706 70.56 92.1626 70.8387 91.3012 70.94L90.4272 71.016C88.9832 71.1427 87.9066 71.5607 87.1972 72.27C86.5132 72.9793 86.1712 74.0053 86.1712 75.348V82.416C86.1712 83.3533 85.9179 84.0753 85.4112 84.582C84.9299 85.0887 84.2206 85.342 83.2832 85.342ZM104.613 85.418C102.612 85.418 100.864 85.0253 99.3694 84.24C97.9001 83.4547 96.7601 82.3273 95.9494 80.858C95.1387 79.3887 94.7334 77.6533 94.7334 75.652C94.7334 74.1573 94.9614 72.8147 95.4174 71.624C95.8734 70.4333 96.5321 69.42 97.3934 68.584C98.2801 67.7227 99.3314 67.0767 100.547 66.646C101.763 66.19 103.119 65.962 104.613 65.962C106.615 65.962 108.35 66.3547 109.819 67.14C111.314 67.9253 112.467 69.04 113.277 70.484C114.113 71.928 114.531 73.6507 114.531 75.652C114.531 77.172 114.291 78.5273 113.809 79.718C113.353 80.9087 112.695 81.9347 111.833 82.796C110.972 83.6573 109.921 84.316 108.679 84.772C107.463 85.2027 106.108 85.418 104.613 85.418ZM104.613 81.124C105.449 81.124 106.171 80.9213 106.779 80.516C107.387 80.1107 107.869 79.5153 108.223 78.73C108.578 77.9193 108.755 76.8933 108.755 75.652C108.755 73.8027 108.375 72.4473 107.615 71.586C106.855 70.6993 105.855 70.256 104.613 70.256C103.803 70.256 103.081 70.446 102.447 70.826C101.839 71.206 101.358 71.8013 101.003 72.612C100.674 73.3973 100.509 74.4107 100.509 75.652C100.509 77.5013 100.889 78.882 101.649 79.794C102.409 80.6807 103.397 81.124 104.613 81.124ZM124.748 85.418C122.494 85.418 120.809 84.7973 119.694 83.556C118.58 82.2893 118.022 80.4147 118.022 77.932V60.794C118.022 59.8313 118.263 59.1093 118.744 58.628C119.251 58.1213 119.973 57.868 120.91 57.868C121.822 57.868 122.519 58.1213 123 58.628C123.507 59.1093 123.76 59.8313 123.76 60.794V77.704C123.76 78.7427 123.976 79.5153 124.406 80.022C124.862 80.5033 125.458 80.744 126.192 80.744C126.395 80.744 126.585 80.7313 126.762 80.706C126.94 80.6807 127.13 80.668 127.332 80.668C127.738 80.6173 128.016 80.744 128.168 81.048C128.346 81.3267 128.434 81.8967 128.434 82.758C128.434 83.518 128.282 84.1007 127.978 84.506C127.674 84.886 127.206 85.1393 126.572 85.266C126.319 85.2913 126.028 85.3167 125.698 85.342C125.369 85.3927 125.052 85.418 124.748 85.418ZM140.181 85.418C137.977 85.418 136.077 85.0253 134.481 84.24C132.91 83.4293 131.694 82.302 130.833 80.858C129.997 79.3887 129.579 77.666 129.579 75.69C129.579 73.7647 129.984 72.08 130.795 70.636C131.606 69.1667 132.733 68.0267 134.177 67.216C135.646 66.38 137.306 65.962 139.155 65.962C140.498 65.962 141.714 66.19 142.803 66.646C143.892 67.0767 144.83 67.71 145.615 68.546C146.4 69.3567 146.996 70.3573 147.401 71.548C147.806 72.7133 148.009 74.018 148.009 75.462C148.009 75.9433 147.857 76.3107 147.553 76.564C147.249 76.792 146.806 76.906 146.223 76.906H134.291V73.942H143.867L143.259 74.474C143.259 73.4353 143.107 72.574 142.803 71.89C142.499 71.1807 142.056 70.6487 141.473 70.294C140.916 69.9393 140.219 69.762 139.383 69.762C138.446 69.762 137.648 69.9773 136.989 70.408C136.33 70.8387 135.824 71.4593 135.469 72.27C135.114 73.0807 134.937 74.056 134.937 75.196V75.5C134.937 77.4253 135.38 78.844 136.267 79.756C137.179 80.668 138.522 81.124 140.295 81.124C140.903 81.124 141.6 81.048 142.385 80.896C143.17 80.744 143.905 80.5033 144.589 80.174C145.172 79.8953 145.691 79.8067 146.147 79.908C146.603 79.984 146.958 80.1867 147.211 80.516C147.464 80.8453 147.604 81.2253 147.629 81.656C147.68 82.0867 147.591 82.5173 147.363 82.948C147.135 83.3533 146.755 83.6953 146.223 83.974C145.362 84.4553 144.386 84.81 143.297 85.038C142.233 85.2913 141.194 85.418 140.181 85.418ZM169.218 85.418C167.597 85.418 166.165 85.0253 164.924 84.24C163.708 83.4547 162.758 82.3273 162.074 80.858C161.39 79.3887 161.048 77.6533 161.048 75.652C161.048 73.6507 161.39 71.928 162.074 70.484C162.758 69.04 163.708 67.9253 164.924 67.14C166.165 66.3547 167.597 65.962 169.218 65.962C170.687 65.962 171.979 66.3167 173.094 67.026C174.234 67.7353 175.007 68.66 175.412 69.8H174.994V60.794C174.994 59.8313 175.235 59.1093 175.716 58.628C176.197 58.1213 176.907 57.868 177.844 57.868C178.756 57.868 179.465 58.1213 179.972 58.628C180.479 59.1093 180.732 59.8313 180.732 60.794V82.416C180.732 83.3533 180.479 84.0753 179.972 84.582C179.491 85.0887 178.794 85.342 177.882 85.342C176.97 85.342 176.261 85.0887 175.754 84.582C175.273 84.0753 175.032 83.3533 175.032 82.416V79.832L175.45 81.314C175.095 82.5553 174.335 83.556 173.17 84.316C172.03 85.0507 170.713 85.418 169.218 85.418ZM170.928 81.124C171.764 81.124 172.486 80.9213 173.094 80.516C173.702 80.1107 174.183 79.5153 174.538 78.73C174.893 77.9193 175.07 76.8933 175.07 75.652C175.07 73.8027 174.69 72.4473 173.93 71.586C173.17 70.6993 172.169 70.256 170.928 70.256C170.117 70.256 169.395 70.446 168.762 70.826C168.154 71.206 167.673 71.8013 167.318 72.612C166.989 73.3973 166.824 74.4107 166.824 75.652C166.824 77.5013 167.204 78.882 167.964 79.794C168.724 80.6807 169.712 81.124 170.928 81.124ZM191.461 85.418C190.093 85.418 188.865 85.152 187.775 84.62C186.686 84.088 185.837 83.366 185.229 82.454C184.621 81.542 184.317 80.516 184.317 79.376C184.317 78.008 184.672 76.9313 185.381 76.146C186.091 75.3353 187.243 74.7653 188.839 74.436C190.435 74.0813 192.551 73.904 195.185 73.904H197.199V76.868H195.223C193.931 76.868 192.88 76.944 192.069 77.096C191.284 77.2227 190.714 77.4507 190.359 77.78C190.03 78.1093 189.865 78.5653 189.865 79.148C189.865 79.8573 190.106 80.44 190.587 80.896C191.094 81.352 191.816 81.58 192.753 81.58C193.488 81.58 194.134 81.4153 194.691 81.086C195.274 80.7313 195.73 80.2627 196.059 79.68C196.389 79.072 196.553 78.388 196.553 77.628V73.258C196.553 72.1433 196.3 71.358 195.793 70.902C195.287 70.4207 194.425 70.18 193.209 70.18C192.525 70.18 191.778 70.2687 190.967 70.446C190.182 70.598 189.308 70.864 188.345 71.244C187.788 71.4973 187.294 71.5607 186.863 71.434C186.433 71.282 186.103 71.0287 185.875 70.674C185.647 70.294 185.533 69.8887 185.533 69.458C185.533 69.002 185.66 68.5713 185.913 68.166C186.167 67.7353 186.585 67.4187 187.167 67.216C188.358 66.7347 189.473 66.4053 190.511 66.228C191.575 66.0507 192.551 65.962 193.437 65.962C195.388 65.962 196.984 66.2533 198.225 66.836C199.492 67.3933 200.442 68.2673 201.075 69.458C201.709 70.6233 202.025 72.1307 202.025 73.98V82.416C202.025 83.3533 201.797 84.0753 201.341 84.582C200.885 85.0887 200.227 85.342 199.365 85.342C198.504 85.342 197.833 85.0887 197.351 84.582C196.895 84.0753 196.667 83.3533 196.667 82.416V81.01L196.933 81.238C196.781 82.0993 196.452 82.8467 195.945 83.48C195.464 84.088 194.843 84.5693 194.083 84.924C193.323 85.2533 192.449 85.418 191.461 85.418ZM213.45 85.418C212.335 85.418 211.182 85.3167 209.992 85.114C208.826 84.9113 207.762 84.5693 206.8 84.088C206.293 83.8347 205.926 83.518 205.698 83.138C205.495 82.7327 205.406 82.3273 205.432 81.922C205.457 81.5167 205.584 81.1493 205.812 80.82C206.065 80.4907 206.382 80.2753 206.762 80.174C207.167 80.0473 207.61 80.0853 208.092 80.288C209.13 80.7187 210.08 81.0227 210.942 81.2C211.803 81.3773 212.652 81.466 213.488 81.466C214.577 81.466 215.362 81.3013 215.844 80.972C216.35 80.6173 216.604 80.1613 216.604 79.604C216.604 79.0973 216.439 78.7173 216.11 78.464C215.78 78.2107 215.299 78.0333 214.666 77.932L210.676 77.21C209.105 76.9313 207.889 76.3613 207.028 75.5C206.192 74.6133 205.774 73.486 205.774 72.118C205.774 70.8513 206.128 69.762 206.838 68.85C207.547 67.9127 208.522 67.2033 209.764 66.722C211.03 66.2153 212.462 65.962 214.058 65.962C215.198 65.962 216.249 66.0633 217.212 66.266C218.174 66.4687 219.099 66.798 219.986 67.254C220.442 67.482 220.758 67.786 220.936 68.166C221.138 68.546 221.202 68.9387 221.126 69.344C221.075 69.7493 220.923 70.1167 220.67 70.446C220.416 70.7753 220.087 70.9907 219.682 71.092C219.302 71.1933 218.858 71.1427 218.352 70.94C217.541 70.56 216.794 70.294 216.11 70.142C215.426 69.9647 214.767 69.876 214.134 69.876C212.994 69.876 212.17 70.066 211.664 70.446C211.157 70.8007 210.904 71.2567 210.904 71.814C210.904 72.2447 211.043 72.612 211.322 72.916C211.626 73.1947 212.082 73.3847 212.69 73.486L216.68 74.208C218.326 74.4867 219.58 75.044 220.442 75.88C221.303 76.6907 221.734 77.8053 221.734 79.224C221.734 81.1493 220.974 82.6693 219.454 83.784C217.959 84.8733 215.958 85.418 213.45 85.418ZM242.766 85.418C241.651 85.418 240.499 85.3167 239.308 85.114C238.143 84.9113 237.079 84.5693 236.116 84.088C235.609 83.8347 235.242 83.518 235.014 83.138C234.811 82.7327 234.723 82.3273 234.748 81.922C234.773 81.5167 234.9 81.1493 235.128 80.82C235.381 80.4907 235.698 80.2753 236.078 80.174C236.483 80.0473 236.927 80.0853 237.408 80.288C238.447 80.7187 239.397 81.0227 240.258 81.2C241.119 81.3773 241.968 81.466 242.804 81.466C243.893 81.466 244.679 81.3013 245.16 80.972C245.667 80.6173 245.92 80.1613 245.92 79.604C245.92 79.0973 245.755 78.7173 245.426 78.464C245.097 78.2107 244.615 78.0333 243.982 77.932L239.992 77.21C238.421 76.9313 237.205 76.3613 236.344 75.5C235.508 74.6133 235.09 73.486 235.09 72.118C235.09 70.8513 235.445 69.762 236.154 68.85C236.863 67.9127 237.839 67.2033 239.08 66.722C240.347 66.2153 241.778 65.962 243.374 65.962C244.514 65.962 245.565 66.0633 246.528 66.266C247.491 66.4687 248.415 66.798 249.302 67.254C249.758 67.482 250.075 67.786 250.252 68.166C250.455 68.546 250.518 68.9387 250.442 69.344C250.391 69.7493 250.239 70.1167 249.986 70.446C249.733 70.7753 249.403 70.9907 248.998 71.092C248.618 71.1933 248.175 71.1427 247.668 70.94C246.857 70.56 246.11 70.294 245.426 70.142C244.742 69.9647 244.083 69.876 243.45 69.876C242.31 69.876 241.487 70.066 240.98 70.446C240.473 70.8007 240.22 71.2567 240.22 71.814C240.22 72.2447 240.359 72.612 240.638 72.916C240.942 73.1947 241.398 73.3847 242.006 73.486L245.996 74.208C247.643 74.4867 248.897 75.044 249.758 75.88C250.619 76.6907 251.05 77.8053 251.05 79.224C251.05 81.1493 250.29 82.6693 248.77 83.784C247.275 84.8733 245.274 85.418 242.766 85.418ZM261.203 85.418C259.632 85.418 258.328 85.1267 257.289 84.544C256.25 83.9613 255.478 83.0873 254.971 81.922C254.49 80.7313 254.249 79.262 254.249 77.514V68.926C254.249 67.9633 254.49 67.2413 254.971 66.76C255.478 66.2787 256.187 66.038 257.099 66.038C258.011 66.038 258.72 66.2787 259.227 66.76C259.734 67.2413 259.987 67.9633 259.987 68.926V77.666C259.987 78.7807 260.215 79.6167 260.671 80.174C261.127 80.706 261.849 80.972 262.837 80.972C263.926 80.972 264.813 80.592 265.497 79.832C266.206 79.0467 266.561 78.0207 266.561 76.754V68.926C266.561 67.9633 266.802 67.2413 267.283 66.76C267.79 66.2787 268.499 66.038 269.411 66.038C270.348 66.038 271.058 66.2787 271.539 66.76C272.046 67.2413 272.299 67.9633 272.299 68.926V82.416C272.299 84.3667 271.374 85.342 269.525 85.342C268.613 85.342 267.916 85.0887 267.435 84.582C266.954 84.0753 266.713 83.3533 266.713 82.416V79.87L267.283 81.352C266.726 82.644 265.928 83.6447 264.889 84.354C263.85 85.0633 262.622 85.418 261.203 85.418ZM283.047 85.418C281.679 85.418 280.45 85.152 279.361 84.62C278.272 84.088 277.423 83.366 276.815 82.454C276.207 81.542 275.903 80.516 275.903 79.376C275.903 78.008 276.258 76.9313 276.967 76.146C277.676 75.3353 278.829 74.7653 280.425 74.436C282.021 74.0813 284.136 73.904 286.771 73.904H288.785V76.868H286.809C285.517 76.868 284.466 76.944 283.655 77.096C282.87 77.2227 282.3 77.4507 281.945 77.78C281.616 78.1093 281.451 78.5653 281.451 79.148C281.451 79.8573 281.692 80.44 282.173 80.896C282.68 81.352 283.402 81.58 284.339 81.58C285.074 81.58 285.72 81.4153 286.277 81.086C286.86 80.7313 287.316 80.2627 287.645 79.68C287.974 79.072 288.139 78.388 288.139 77.628V73.258C288.139 72.1433 287.886 71.358 287.379 70.902C286.872 70.4207 286.011 70.18 284.795 70.18C284.111 70.18 283.364 70.2687 282.553 70.446C281.768 70.598 280.894 70.864 279.931 71.244C279.374 71.4973 278.88 71.5607 278.449 71.434C278.018 71.282 277.689 71.0287 277.461 70.674C277.233 70.294 277.119 69.8887 277.119 69.458C277.119 69.002 277.246 68.5713 277.499 68.166C277.752 67.7353 278.17 67.4187 278.753 67.216C279.944 66.7347 281.058 66.4053 282.097 66.228C283.161 66.0507 284.136 65.962 285.023 65.962C286.974 65.962 288.57 66.2533 289.811 66.836C291.078 67.3933 292.028 68.2673 292.661 69.458C293.294 70.6233 293.611 72.1307 293.611 73.98V82.416C293.611 83.3533 293.383 84.0753 292.927 84.582C292.471 85.0887 291.812 85.342 290.951 85.342C290.09 85.342 289.418 85.0887 288.937 84.582C288.481 84.0753 288.253 83.3533 288.253 82.416V81.01L288.519 81.238C288.367 82.0993 288.038 82.8467 287.531 83.48C287.05 84.088 286.429 84.5693 285.669 84.924C284.909 85.2533 284.035 85.418 283.047 85.418ZM305.036 85.418C303.921 85.418 302.768 85.3167 301.578 85.114C300.412 84.9113 299.348 84.5693 298.386 84.088C297.879 83.8347 297.512 83.518 297.284 83.138C297.081 82.7327 296.992 82.3273 297.018 81.922C297.043 81.5167 297.17 81.1493 297.398 80.82C297.651 80.4907 297.968 80.2753 298.348 80.174C298.753 80.0473 299.196 80.0853 299.678 80.288C300.716 80.7187 301.666 81.0227 302.528 81.2C303.389 81.3773 304.238 81.466 305.074 81.466C306.163 81.466 306.948 81.3013 307.43 80.972C307.936 80.6173 308.19 80.1613 308.19 79.604C308.19 79.0973 308.025 78.7173 307.696 78.464C307.366 78.2107 306.885 78.0333 306.252 77.932L302.262 77.21C300.691 76.9313 299.475 76.3613 298.614 75.5C297.778 74.6133 297.36 73.486 297.36 72.118C297.36 70.8513 297.714 69.762 298.424 68.85C299.133 67.9127 300.108 67.2033 301.35 66.722C302.616 66.2153 304.048 65.962 305.644 65.962C306.784 65.962 307.835 66.0633 308.798 66.266C309.76 66.4687 310.685 66.798 311.572 67.254C312.028 67.482 312.344 67.786 312.522 68.166C312.724 68.546 312.788 68.9387 312.712 69.344C312.661 69.7493 312.509 70.1167 312.256 70.446C312.002 70.7753 311.673 70.9907 311.268 71.092C310.888 71.1933 310.444 71.1427 309.938 70.94C309.127 70.56 308.38 70.294 307.696 70.142C307.012 69.9647 306.353 69.876 305.719 69.876C304.58 69.876 303.756 70.066 303.25 70.446C302.743 70.8007 302.49 71.2567 302.49 71.814C302.49 72.2447 302.629 72.612 302.908 72.916C303.212 73.1947 303.668 73.3847 304.276 73.486L308.266 74.208C309.912 74.4867 311.166 75.044 312.028 75.88C312.889 76.6907 313.32 77.8053 313.32 79.224C313.32 81.1493 312.56 82.6693 311.04 83.784C309.545 84.8733 307.544 85.418 305.036 85.418ZM6.536 133.342C5.59867 133.342 4.87667 133.089 4.37 132.582C3.88867 132.075 3.648 131.353 3.648 130.416V118.636H2.28C1.57067 118.636 1.01333 118.446 0.608 118.066C0.228 117.686 0.038 117.167 0.038 116.508C0.038 115.799 0.228 115.267 0.608 114.912C1.01333 114.532 1.57067 114.342 2.28 114.342H5.32L3.648 115.862V114.684C3.648 112.024 4.30667 110.01 5.624 108.642C6.94133 107.274 8.892 106.451 11.476 106.172L12.578 106.058C13.2873 106.007 13.8447 106.109 14.25 106.362C14.6807 106.59 14.9593 106.907 15.086 107.312C15.238 107.717 15.276 108.135 15.2 108.566C15.124 108.997 14.9467 109.377 14.668 109.706C14.4147 110.01 14.0853 110.175 13.68 110.2L12.882 110.276C11.6153 110.352 10.716 110.669 10.184 111.226C9.652 111.783 9.386 112.607 9.386 113.696V114.988L8.664 114.342H19.304C20.216 114.342 20.9127 114.621 21.394 115.178C21.9007 115.71 22.154 116.47 22.154 117.458V130.188C22.154 131.176 21.9133 131.949 21.432 132.506C20.9507 133.038 20.2413 133.304 19.304 133.304C18.392 133.304 17.6827 133.038 17.176 132.506C16.6693 131.949 16.416 131.176 16.416 130.188V118.636H9.386V130.416C9.386 132.367 8.436 133.342 6.536 133.342ZM19.418 110.922C18.4047 110.922 17.6193 110.681 17.062 110.2C16.53 109.693 16.264 108.984 16.264 108.072C16.264 107.135 16.53 106.425 17.062 105.944C17.6193 105.437 18.4047 105.184 19.418 105.184C20.4313 105.184 21.204 105.437 21.736 105.944C22.2933 106.425 22.572 107.135 22.572 108.072C22.572 108.984 22.2933 109.693 21.736 110.2C21.204 110.681 20.4313 110.922 19.418 110.922ZM29.4729 133.342C28.5355 133.342 27.8135 133.089 27.3069 132.582C26.8255 132.075 26.5849 131.353 26.5849 130.416V116.926C26.5849 115.989 26.8255 115.279 27.3069 114.798C27.8135 114.291 28.5102 114.038 29.3969 114.038C30.3089 114.038 31.0055 114.291 31.4869 114.798C31.9682 115.279 32.2089 115.989 32.2089 116.926V119.092L31.7909 117.838C32.3735 116.597 33.2349 115.647 34.3749 114.988C35.5402 114.304 36.8575 113.962 38.3269 113.962C39.8215 113.962 41.0502 114.253 42.0129 114.836C42.9755 115.393 43.6975 116.255 44.1789 117.42C44.6602 118.56 44.9009 120.017 44.9009 121.79V130.416C44.9009 131.353 44.6475 132.075 44.1409 132.582C43.6595 133.089 42.9502 133.342 42.0129 133.342C41.1009 133.342 40.3915 133.089 39.8849 132.582C39.4035 132.075 39.1629 131.353 39.1629 130.416V122.056C39.1629 120.764 38.9222 119.839 38.4409 119.282C37.9849 118.699 37.2755 118.408 36.3129 118.408C35.0969 118.408 34.1215 118.788 33.3869 119.548C32.6775 120.308 32.3229 121.321 32.3229 122.588V130.416C32.3229 132.367 31.3729 133.342 29.4729 133.342ZM55.4925 133.418C54.1245 133.418 52.8958 133.152 51.8065 132.62C50.7171 132.088 49.8685 131.366 49.2605 130.454C48.6525 129.542 48.3485 128.516 48.3485 127.376C48.3485 126.008 48.7031 124.931 49.4125 124.146C50.1218 123.335 51.2745 122.765 52.8705 122.436C54.4665 122.081 56.5818 121.904 59.2165 121.904H61.2305V124.868H59.2545C57.9625 124.868 56.9111 124.944 56.1005 125.096C55.3151 125.223 54.7451 125.451 54.3905 125.78C54.0611 126.109 53.8965 126.565 53.8965 127.148C53.8965 127.857 54.1371 128.44 54.6185 128.896C55.1251 129.352 55.8471 129.58 56.7845 129.58C57.5191 129.58 58.1651 129.415 58.7225 129.086C59.3051 128.731 59.7611 128.263 60.0905 127.68C60.4198 127.072 60.5845 126.388 60.5845 125.628V121.258C60.5845 120.143 60.3311 119.358 59.8245 118.902C59.3178 118.421 58.4565 118.18 57.2405 118.18C56.5565 118.18 55.8091 118.269 54.9985 118.446C54.2131 118.598 53.3391 118.864 52.3765 119.244C51.8191 119.497 51.3251 119.561 50.8945 119.434C50.4638 119.282 50.1345 119.029 49.9065 118.674C49.6785 118.294 49.5645 117.889 49.5645 117.458C49.5645 117.002 49.6911 116.571 49.9445 116.166C50.1978 115.735 50.6158 115.419 51.1985 115.216C52.3891 114.735 53.5038 114.405 54.5425 114.228C55.6065 114.051 56.5818 113.962 57.4685 113.962C59.4191 113.962 61.0151 114.253 62.2565 114.836C63.5231 115.393 64.4731 116.267 65.1065 117.458C65.7398 118.623 66.0565 120.131 66.0565 121.98V130.416C66.0565 131.353 65.8285 132.075 65.3725 132.582C64.9165 133.089 64.2578 133.342 63.3965 133.342C62.5351 133.342 61.8638 133.089 61.3825 132.582C60.9265 132.075 60.6985 131.353 60.6985 130.416V129.01L60.9645 129.238C60.8125 130.099 60.4831 130.847 59.9765 131.48C59.4951 132.088 58.8745 132.569 58.1145 132.924C57.3545 133.253 56.4805 133.418 55.4925 133.418ZM73.2248 133.342C72.2875 133.342 71.5655 133.089 71.0588 132.582C70.5775 132.075 70.3368 131.353 70.3368 130.416V116.926C70.3368 115.989 70.5775 115.279 71.0588 114.798C71.5655 114.291 72.2621 114.038 73.1488 114.038C74.0608 114.038 74.7575 114.291 75.2388 114.798C75.7201 115.279 75.9608 115.989 75.9608 116.926V119.092L75.5428 117.838C76.1255 116.597 76.9868 115.647 78.1268 114.988C79.2921 114.304 80.6095 113.962 82.0788 113.962C83.5735 113.962 84.8021 114.253 85.7648 114.836C86.7275 115.393 87.4495 116.255 87.9308 117.42C88.4121 118.56 88.6528 120.017 88.6528 121.79V130.416C88.6528 131.353 88.3995 132.075 87.8928 132.582C87.4115 133.089 86.7021 133.342 85.7648 133.342C84.8528 133.342 84.1435 133.089 83.6368 132.582C83.1555 132.075 82.9148 131.353 82.9148 130.416V122.056C82.9148 120.764 82.6741 119.839 82.1928 119.282C81.7368 118.699 81.0275 118.408 80.0648 118.408C78.8488 118.408 77.8735 118.788 77.1388 119.548C76.4295 120.308 76.0748 121.321 76.0748 122.588V130.416C76.0748 132.367 75.1248 133.342 73.2248 133.342ZM102.018 133.418C99.9918 133.418 98.2184 133.025 96.6984 132.24C95.2038 131.429 94.0511 130.289 93.2404 128.82C92.4298 127.351 92.0244 125.615 92.0244 123.614C92.0244 122.119 92.2524 120.777 92.7084 119.586C93.1644 118.395 93.8231 117.382 94.6844 116.546C95.5711 115.71 96.6351 115.077 97.8764 114.646C99.1178 114.19 100.498 113.962 102.018 113.962C102.804 113.962 103.64 114.063 104.526 114.266C105.413 114.443 106.287 114.76 107.148 115.216C107.655 115.444 107.997 115.773 108.174 116.204C108.377 116.609 108.453 117.04 108.402 117.496C108.352 117.927 108.187 118.319 107.908 118.674C107.655 119.003 107.326 119.231 106.92 119.358C106.515 119.459 106.059 119.383 105.552 119.13C105.071 118.851 104.564 118.649 104.032 118.522C103.526 118.395 103.044 118.332 102.588 118.332C101.828 118.332 101.157 118.459 100.574 118.712C99.9918 118.94 99.4978 119.282 99.0924 119.738C98.7124 120.169 98.4084 120.713 98.1804 121.372C97.9778 122.031 97.8764 122.791 97.8764 123.652C97.8764 125.324 98.2818 126.641 99.0924 127.604C99.9284 128.541 101.094 129.01 102.588 129.01C103.044 129.01 103.526 128.959 104.032 128.858C104.539 128.731 105.046 128.529 105.552 128.25C106.059 127.997 106.515 127.933 106.92 128.06C107.326 128.187 107.642 128.427 107.87 128.782C108.124 129.111 108.263 129.504 108.288 129.96C108.339 130.391 108.263 130.821 108.06 131.252C107.883 131.657 107.554 131.974 107.072 132.202C106.211 132.633 105.35 132.937 104.488 133.114C103.627 133.317 102.804 133.418 102.018 133.418ZM101.6 140.486C101.119 140.486 100.6 140.448 100.042 140.372C99.5104 140.321 99.0164 140.22 98.5604 140.068C98.1298 139.941 97.8258 139.713 97.6484 139.384C97.4964 139.055 97.4584 138.725 97.5344 138.396C97.6104 138.067 97.7878 137.813 98.0664 137.636C98.3704 137.459 98.7504 137.446 99.2064 137.598C99.5358 137.699 99.8524 137.775 100.156 137.826C100.46 137.877 100.764 137.902 101.068 137.902C101.727 137.902 102.221 137.813 102.55 137.636C102.88 137.484 103.044 137.243 103.044 136.914C103.044 136.661 102.93 136.471 102.702 136.344C102.5 136.217 102.145 136.154 101.638 136.154C101.461 136.154 101.284 136.154 101.106 136.154C100.929 136.179 100.752 136.205 100.574 136.23C100.397 136.281 100.232 136.293 100.08 136.268C99.9538 136.243 99.8271 136.179 99.7004 136.078C99.5991 135.977 99.5358 135.837 99.5104 135.66C99.4851 135.508 99.4851 135.305 99.5104 135.052L99.9284 132.24H102.816L102.322 135.128L100.916 134.596C101.22 134.495 101.524 134.419 101.828 134.368C102.132 134.317 102.411 134.292 102.664 134.292C103.779 134.292 104.666 134.533 105.324 135.014C105.983 135.521 106.312 136.217 106.312 137.104C106.312 138.117 105.869 138.928 104.982 139.536C104.121 140.169 102.994 140.486 101.6 140.486ZM117.317 133.418C115.949 133.418 114.72 133.152 113.631 132.62C112.541 132.088 111.693 131.366 111.085 130.454C110.477 129.542 110.173 128.516 110.173 127.376C110.173 126.008 110.527 124.931 111.237 124.146C111.946 123.335 113.099 122.765 114.695 122.436C116.291 122.081 118.406 121.904 121.041 121.904H123.055V124.868H121.079C119.787 124.868 118.735 124.944 117.925 125.096C117.139 125.223 116.569 125.451 116.215 125.78C115.885 126.109 115.721 126.565 115.721 127.148C115.721 127.857 115.961 128.44 116.443 128.896C116.949 129.352 117.671 129.58 118.609 129.58C119.343 129.58 119.989 129.415 120.547 129.086C121.129 128.731 121.585 128.263 121.915 127.68C122.244 127.072 122.409 126.388 122.409 125.628V121.258C122.409 120.143 122.155 119.358 121.649 118.902C121.142 118.421 120.281 118.18 119.065 118.18C118.381 118.18 117.633 118.269 116.823 118.446C116.037 118.598 115.163 118.864 114.201 119.244C113.643 119.497 113.149 119.561 112.719 119.434C112.288 119.282 111.959 119.029 111.731 118.674C111.503 118.294 111.389 117.889 111.389 117.458C111.389 117.002 111.515 116.571 111.769 116.166C112.022 115.735 112.44 115.419 113.023 115.216C114.213 114.735 115.328 114.405 116.367 114.228C117.431 114.051 118.406 113.962 119.293 113.962C121.243 113.962 122.839 114.253 124.081 114.836C125.347 115.393 126.297 116.267 126.931 117.458C127.564 118.623 127.881 120.131 127.881 121.98V130.416C127.881 131.353 127.653 132.075 127.197 132.582C126.741 133.089 126.082 133.342 125.221 133.342C124.359 133.342 123.688 133.089 123.207 132.582C122.751 132.075 122.523 131.353 122.523 130.416V129.01L122.789 129.238C122.637 130.099 122.307 130.847 121.801 131.48C121.319 132.088 120.699 132.569 119.939 132.924C119.179 133.253 118.305 133.418 117.317 133.418ZM139.305 133.418C138.19 133.418 137.038 133.317 135.847 133.114C134.682 132.911 133.618 132.569 132.655 132.088C132.148 131.835 131.781 131.518 131.553 131.138C131.35 130.733 131.262 130.327 131.287 129.922C131.312 129.517 131.439 129.149 131.667 128.82C131.92 128.491 132.237 128.275 132.617 128.174C133.022 128.047 133.466 128.085 133.947 128.288C134.986 128.719 135.936 129.023 136.797 129.2C137.658 129.377 138.507 129.466 139.343 129.466C140.432 129.466 141.218 129.301 141.699 128.972C142.206 128.617 142.459 128.161 142.459 127.604C142.459 127.097 142.294 126.717 141.965 126.464C141.636 126.211 141.154 126.033 140.521 125.932L136.531 125.21C134.96 124.931 133.744 124.361 132.883 123.5C132.047 122.613 131.629 121.486 131.629 120.118C131.629 118.851 131.984 117.762 132.693 116.85C133.402 115.913 134.378 115.203 135.619 114.722C136.886 114.215 138.317 113.962 139.913 113.962C141.053 113.962 142.104 114.063 143.067 114.266C144.03 114.469 144.954 114.798 145.841 115.254C146.297 115.482 146.614 115.786 146.791 116.166C146.994 116.546 147.057 116.939 146.981 117.344C146.93 117.749 146.778 118.117 146.525 118.446C146.272 118.775 145.942 118.991 145.537 119.092C145.157 119.193 144.714 119.143 144.207 118.94C143.396 118.56 142.649 118.294 141.965 118.142C141.281 117.965 140.622 117.876 139.989 117.876C138.849 117.876 138.026 118.066 137.519 118.446C137.012 118.801 136.759 119.257 136.759 119.814C136.759 120.245 136.898 120.612 137.177 120.916C137.481 121.195 137.937 121.385 138.545 121.486L142.535 122.208C144.182 122.487 145.436 123.044 146.297 123.88C147.158 124.691 147.589 125.805 147.589 127.224C147.589 129.149 146.829 130.669 145.309 131.784C143.814 132.873 141.813 133.418 139.305 133.418Z" fill="white"/>
<path d="M7.456 178.64C7.65867 178.64 7.81867 178.699 7.936 178.816C8.05333 178.933 8.112 179.083 8.112 179.264V189.44C8.112 189.632 8.05333 189.787 7.936 189.904C7.81867 190.021 7.65867 190.08 7.456 190.08C7.25333 190.08 7.09333 190.021 6.976 189.904C6.86933 189.787 6.816 189.632 6.816 189.44V188.576C6.58133 189.067 6.23467 189.445 5.776 189.712C5.328 189.979 4.8 190.112 4.192 190.112C3.50933 190.112 2.90667 189.941 2.384 189.6C1.86133 189.259 1.456 188.784 1.168 188.176C0.88 187.557 0.736 186.843 0.736 186.032C0.736 185.232 0.88 184.528 1.168 183.92C1.456 183.312 1.86133 182.843 2.384 182.512C2.90667 182.181 3.50933 182.016 4.192 182.016C4.8 182.016 5.328 182.149 5.776 182.416C6.23467 182.683 6.58133 183.061 6.816 183.552V179.264C6.816 179.072 6.86933 178.923 6.976 178.816C7.09333 178.699 7.25333 178.64 7.456 178.64ZM4.448 189.04C5.20533 189.04 5.78667 188.784 6.192 188.272C6.608 187.749 6.816 187.013 6.816 186.064C6.816 185.115 6.608 184.384 6.192 183.872C5.78667 183.36 5.20533 183.104 4.448 183.104C3.69067 183.104 3.09867 183.36 2.672 183.872C2.256 184.384 2.048 185.104 2.048 186.032C2.048 186.981 2.256 187.723 2.672 188.256C3.09867 188.779 3.69067 189.04 4.448 189.04ZM16.5445 188.192C16.6618 188.192 16.7632 188.24 16.8485 188.336C16.9338 188.432 16.9765 188.555 16.9765 188.704C16.9765 188.971 16.7898 189.216 16.4165 189.44C16.0325 189.664 15.6272 189.835 15.2005 189.952C14.7738 190.059 14.3578 190.112 13.9525 190.112C12.7472 190.112 11.7925 189.755 11.0885 189.04C10.3952 188.325 10.0485 187.339 10.0485 186.08C10.0485 185.28 10.2032 184.576 10.5125 183.968C10.8218 183.349 11.2538 182.869 11.8085 182.528C12.3738 182.187 13.0138 182.016 13.7285 182.016C14.7418 182.016 15.5472 182.347 16.1445 183.008C16.7418 183.669 17.0405 184.565 17.0405 185.696C17.0405 185.909 16.9978 186.064 16.9125 186.16C16.8272 186.256 16.6885 186.304 16.4965 186.304H11.3445C11.4405 188.139 12.3098 189.056 13.9525 189.056C14.3685 189.056 14.7258 189.003 15.0245 188.896C15.3232 188.779 15.6432 188.624 15.9845 188.432C16.2618 188.272 16.4485 188.192 16.5445 188.192ZM13.7445 183.024C13.0618 183.024 12.5125 183.237 12.0965 183.664C11.6912 184.091 11.4512 184.693 11.3765 185.472H15.9045C15.8832 184.683 15.6858 184.08 15.3125 183.664C14.9392 183.237 14.4165 183.024 13.7445 183.024ZM26.515 179.744C25.9497 179.787 25.523 179.968 25.235 180.288C24.947 180.597 24.803 181.067 24.803 181.696V182.208H26.579C26.7603 182.208 26.899 182.256 26.995 182.352C27.091 182.448 27.139 182.576 27.139 182.736C27.139 182.896 27.091 183.019 26.995 183.104C26.899 183.189 26.7603 183.232 26.579 183.232H24.803V189.44C24.803 189.643 24.739 189.803 24.611 189.92C24.4937 190.027 24.3443 190.08 24.163 190.08C23.971 190.08 23.811 190.027 23.683 189.92C23.5657 189.803 23.507 189.643 23.507 189.44V183.232H22.435C22.2537 183.232 22.1097 183.189 22.003 183.104C21.907 183.008 21.859 182.885 21.859 182.736C21.859 182.576 21.907 182.448 22.003 182.352C22.1097 182.256 22.2537 182.208 22.435 182.208H23.507V181.92C23.507 180.96 23.747 180.208 24.227 179.664C24.707 179.109 25.395 178.8 26.291 178.736L26.707 178.704C26.9843 178.683 27.1817 178.709 27.299 178.784C27.427 178.859 27.491 178.992 27.491 179.184C27.491 179.493 27.3043 179.669 26.931 179.712L26.515 179.744ZM31.4789 190.112C30.7429 190.112 30.0922 189.947 29.5269 189.616C28.9722 189.285 28.5402 188.816 28.2309 188.208C27.9322 187.589 27.7829 186.875 27.7829 186.064C27.7829 185.253 27.9322 184.544 28.2309 183.936C28.5402 183.317 28.9722 182.843 29.5269 182.512C30.0922 182.181 30.7429 182.016 31.4789 182.016C32.2149 182.016 32.8655 182.181 33.4309 182.512C33.9962 182.843 34.4282 183.317 34.7269 183.936C35.0362 184.544 35.1909 185.253 35.1909 186.064C35.1909 186.875 35.0362 187.589 34.7269 188.208C34.4282 188.816 33.9962 189.285 33.4309 189.616C32.8655 189.947 32.2149 190.112 31.4789 190.112ZM31.4789 189.04C32.2469 189.04 32.8335 188.789 33.2389 188.288C33.6549 187.776 33.8629 187.035 33.8629 186.064C33.8629 185.115 33.6549 184.384 33.2389 183.872C32.8229 183.349 32.2362 183.088 31.4789 183.088C30.7215 183.088 30.1349 183.349 29.7189 183.872C29.3029 184.384 29.0949 185.115 29.0949 186.064C29.0949 187.024 29.2975 187.76 29.7029 188.272C30.1189 188.784 30.7109 189.04 31.4789 189.04ZM40.9779 182.048C41.4259 182.016 41.6499 182.197 41.6499 182.592C41.6499 182.763 41.6019 182.901 41.5059 183.008C41.4099 183.104 41.2445 183.163 41.0099 183.184L40.5299 183.232C39.8152 183.296 39.2819 183.552 38.9299 184C38.5885 184.437 38.4179 184.955 38.4179 185.552V189.44C38.4179 189.653 38.3592 189.813 38.2419 189.92C38.1245 190.027 37.9699 190.08 37.7779 190.08C37.5859 190.08 37.4259 190.027 37.2979 189.92C37.1805 189.803 37.1219 189.643 37.1219 189.44V182.688C37.1219 182.485 37.1859 182.331 37.3139 182.224C37.4419 182.107 37.5965 182.048 37.7779 182.048C37.9485 182.048 38.0925 182.107 38.2099 182.224C38.3272 182.331 38.3859 182.48 38.3859 182.672V183.568C38.6099 183.099 38.9245 182.741 39.3299 182.496C39.7459 182.251 40.2205 182.107 40.7539 182.064L40.9779 182.048ZM51.4345 182.016C53.1625 182.016 54.0265 183.045 54.0265 185.104V189.44C54.0265 189.643 53.9678 189.803 53.8505 189.92C53.7332 190.027 53.5785 190.08 53.3865 190.08C53.1945 190.08 53.0345 190.027 52.9065 189.92C52.7892 189.803 52.7305 189.643 52.7305 189.44V185.136C52.7305 184.421 52.6025 183.904 52.3465 183.584C52.0905 183.264 51.6905 183.104 51.1465 183.104C50.4958 183.104 49.9838 183.323 49.6105 183.76C49.2372 184.197 49.0505 184.789 49.0505 185.536V189.44C49.0505 189.643 48.9865 189.803 48.8585 189.92C48.7412 190.027 48.5865 190.08 48.3945 190.08C48.2025 190.08 48.0478 190.027 47.9305 189.92C47.8132 189.803 47.7545 189.643 47.7545 189.44V185.136C47.7545 184.421 47.6265 183.904 47.3705 183.584C47.1145 183.264 46.7092 183.104 46.1545 183.104C45.5145 183.104 45.0025 183.323 44.6185 183.76C44.2452 184.197 44.0585 184.789 44.0585 185.536V189.44C44.0585 189.643 43.9998 189.803 43.8825 189.92C43.7652 190.027 43.6105 190.08 43.4185 190.08C43.2265 190.08 43.0665 190.027 42.9385 189.92C42.8212 189.803 42.7625 189.643 42.7625 189.44V182.688C42.7625 182.496 42.8212 182.341 42.9385 182.224C43.0665 182.107 43.2265 182.048 43.4185 182.048C43.5998 182.048 43.7492 182.107 43.8665 182.224C43.9838 182.331 44.0425 182.48 44.0425 182.672V183.44C44.2772 182.981 44.6025 182.629 45.0185 182.384C45.4345 182.139 45.9145 182.016 46.4585 182.016C47.6745 182.016 48.4692 182.528 48.8425 183.552C49.0665 183.083 49.4078 182.709 49.8665 182.432C50.3252 182.155 50.8478 182.016 51.4345 182.016ZM59.5715 182.016C61.5235 182.016 62.4995 183.04 62.4995 185.088V189.44C62.4995 189.632 62.4408 189.787 62.3235 189.904C62.2168 190.021 62.0675 190.08 61.8755 190.08C61.6835 190.08 61.5288 190.021 61.4115 189.904C61.2942 189.787 61.2355 189.632 61.2355 189.44V188.672C61.0328 189.131 60.7235 189.488 60.3075 189.744C59.8915 189.989 59.4115 190.112 58.8675 190.112C58.3662 190.112 57.9022 190.011 57.4755 189.808C57.0595 189.605 56.7288 189.323 56.4835 188.96C56.2382 188.597 56.1155 188.197 56.1155 187.76C56.1155 187.173 56.2648 186.72 56.5635 186.4C56.8622 186.069 57.3528 185.835 58.0355 185.696C58.7182 185.547 59.6675 185.472 60.8835 185.472H61.2355V184.944C61.2355 184.304 61.1022 183.835 60.8355 183.536C60.5795 183.237 60.1582 183.088 59.5715 183.088C58.8462 183.088 58.1102 183.285 57.3635 183.68C57.0755 183.861 56.8728 183.952 56.7555 183.952C56.6275 183.952 56.5208 183.904 56.4355 183.808C56.3502 183.712 56.3075 183.589 56.3075 183.44C56.3075 183.291 56.3502 183.163 56.4355 183.056C56.5315 182.939 56.6808 182.821 56.8835 182.704C57.2568 182.491 57.6782 182.325 58.1475 182.208C58.6275 182.08 59.1022 182.016 59.5715 182.016ZM59.0435 189.088C59.6835 189.088 60.2062 188.875 60.6115 188.448C61.0275 188.011 61.2355 187.451 61.2355 186.768V186.304H60.9475C60.0088 186.304 59.2942 186.347 58.8035 186.432C58.3128 186.507 57.9608 186.64 57.7475 186.832C57.5448 187.013 57.4435 187.285 57.4435 187.648C57.4435 188.064 57.5928 188.411 57.8915 188.688C58.2008 188.955 58.5848 189.088 59.0435 189.088ZM72.8529 182.048C73.3009 182.016 73.5249 182.197 73.5249 182.592C73.5249 182.763 73.4769 182.901 73.3809 183.008C73.2849 183.104 73.1195 183.163 72.8849 183.184L72.4049 183.232C71.6902 183.296 71.1569 183.552 70.8049 184C70.4635 184.437 70.2929 184.955 70.2929 185.552V189.44C70.2929 189.653 70.2342 189.813 70.1169 189.92C69.9995 190.027 69.8449 190.08 69.6529 190.08C69.4609 190.08 69.3009 190.027 69.1729 189.92C69.0555 189.803 68.9969 189.643 68.9969 189.44V182.688C68.9969 182.485 69.0609 182.331 69.1889 182.224C69.3169 182.107 69.4715 182.048 69.6529 182.048C69.8235 182.048 69.9675 182.107 70.0849 182.224C70.2022 182.331 70.2609 182.48 70.2609 182.672V183.568C70.4849 183.099 70.7995 182.741 71.2049 182.496C71.6209 182.251 72.0955 182.107 72.6289 182.064L72.8529 182.048ZM77.759 182.016C79.711 182.016 80.687 183.04 80.687 185.088V189.44C80.687 189.632 80.6283 189.787 80.511 189.904C80.4043 190.021 80.255 190.08 80.063 190.08C79.871 190.08 79.7163 190.021 79.599 189.904C79.4817 189.787 79.423 189.632 79.423 189.44V188.672C79.2203 189.131 78.911 189.488 78.495 189.744C78.079 189.989 77.599 190.112 77.055 190.112C76.5537 190.112 76.0897 190.011 75.663 189.808C75.247 189.605 74.9163 189.323 74.671 188.96C74.4257 188.597 74.303 188.197 74.303 187.76C74.303 187.173 74.4523 186.72 74.751 186.4C75.0497 186.069 75.5403 185.835 76.223 185.696C76.9057 185.547 77.855 185.472 79.071 185.472H79.423V184.944C79.423 184.304 79.2897 183.835 79.023 183.536C78.767 183.237 78.3457 183.088 77.759 183.088C77.0337 183.088 76.2977 183.285 75.551 183.68C75.263 183.861 75.0603 183.952 74.943 183.952C74.815 183.952 74.7083 183.904 74.623 183.808C74.5377 183.712 74.495 183.589 74.495 183.44C74.495 183.291 74.5377 183.163 74.623 183.056C74.719 182.939 74.8683 182.821 75.071 182.704C75.4443 182.491 75.8657 182.325 76.335 182.208C76.815 182.08 77.2897 182.016 77.759 182.016ZM77.231 189.088C77.871 189.088 78.3937 188.875 78.799 188.448C79.215 188.011 79.423 187.451 79.423 186.768V186.304H79.135C78.1963 186.304 77.4817 186.347 76.991 186.432C76.5003 186.507 76.1483 186.64 75.935 186.832C75.7323 187.013 75.631 187.285 75.631 187.648C75.631 188.064 75.7803 188.411 76.079 188.688C76.3883 188.955 76.7723 189.088 77.231 189.088ZM78.047 181.168C77.9617 181.232 77.8763 181.264 77.791 181.264C77.6843 181.264 77.5937 181.232 77.519 181.168C77.4443 181.093 77.407 181.008 77.407 180.912C77.407 180.827 77.439 180.747 77.503 180.672L79.359 178.24C79.551 177.995 79.7697 177.872 80.015 177.872C80.1857 177.872 80.3297 177.931 80.447 178.048C80.5643 178.155 80.623 178.293 80.623 178.464C80.623 178.688 80.5163 178.891 80.303 179.072L78.047 181.168ZM86.9794 182.016C87.662 182.016 88.2647 182.187 88.7874 182.528C89.31 182.869 89.7154 183.349 90.0034 183.968C90.2914 184.576 90.4354 185.285 90.4354 186.096C90.4354 186.907 90.2914 187.616 90.0034 188.224C89.7154 188.821 89.31 189.285 88.7874 189.616C88.2754 189.947 87.6727 190.112 86.9794 190.112C86.3714 190.112 85.838 189.979 85.3794 189.712C84.9314 189.445 84.59 189.067 84.3554 188.576V192.336C84.3554 192.528 84.2967 192.677 84.1794 192.784C84.0727 192.901 83.918 192.96 83.7154 192.96C83.5127 192.96 83.3527 192.901 83.2354 192.784C83.118 192.667 83.0594 192.517 83.0594 192.336V182.688C83.0594 182.496 83.118 182.341 83.2354 182.224C83.3527 182.107 83.5127 182.048 83.7154 182.048C83.918 182.048 84.0727 182.107 84.1794 182.224C84.2967 182.341 84.3554 182.496 84.3554 182.688V183.552C84.59 183.061 84.9314 182.683 85.3794 182.416C85.838 182.149 86.3714 182.016 86.9794 182.016ZM86.7234 189.04C87.4807 189.04 88.0674 188.784 88.4834 188.272C88.8994 187.76 89.1074 187.035 89.1074 186.096C89.1074 185.157 88.8994 184.427 88.4834 183.904C88.0674 183.371 87.4807 183.104 86.7234 183.104C85.966 183.104 85.3794 183.36 84.9634 183.872C84.558 184.384 84.3554 185.115 84.3554 186.064C84.3554 187.013 84.558 187.749 84.9634 188.272C85.3794 188.784 85.966 189.04 86.7234 189.04ZM93.0279 190.08C92.8359 190.08 92.6759 190.027 92.5479 189.92C92.4305 189.803 92.3719 189.643 92.3719 189.44V182.688C92.3719 182.485 92.4305 182.331 92.5479 182.224C92.6759 182.107 92.8359 182.048 93.0279 182.048C93.2199 182.048 93.3745 182.107 93.4919 182.224C93.6092 182.331 93.6679 182.485 93.6679 182.688V189.44C93.6679 189.653 93.6092 189.813 93.4919 189.92C93.3745 190.027 93.2199 190.08 93.0279 190.08ZM93.0279 180.368C92.7719 180.368 92.5639 180.293 92.4039 180.144C92.2439 179.995 92.1639 179.797 92.1639 179.552C92.1639 179.317 92.2439 179.125 92.4039 178.976C92.5639 178.827 92.7719 178.752 93.0279 178.752C93.2839 178.752 93.4919 178.827 93.6519 178.976C93.8119 179.125 93.8919 179.317 93.8919 179.552C93.8919 179.797 93.8119 179.995 93.6519 180.144C93.4919 180.293 93.2839 180.368 93.0279 180.368ZM102.347 178.64C102.549 178.64 102.709 178.699 102.827 178.816C102.944 178.933 103.003 179.083 103.003 179.264V189.44C103.003 189.632 102.944 189.787 102.827 189.904C102.709 190.021 102.549 190.08 102.347 190.08C102.144 190.08 101.984 190.021 101.867 189.904C101.76 189.787 101.707 189.632 101.707 189.44V188.576C101.472 189.067 101.125 189.445 100.667 189.712C100.219 189.979 99.6906 190.112 99.0826 190.112C98.4 190.112 97.7973 189.941 97.2746 189.6C96.752 189.259 96.3466 188.784 96.0586 188.176C95.7706 187.557 95.6266 186.843 95.6266 186.032C95.6266 185.232 95.7706 184.528 96.0586 183.92C96.3466 183.312 96.752 182.843 97.2746 182.512C97.7973 182.181 98.4 182.016 99.0826 182.016C99.6906 182.016 100.219 182.149 100.667 182.416C101.125 182.683 101.472 183.061 101.707 183.552V179.264C101.707 179.072 101.76 178.923 101.867 178.816C101.984 178.699 102.144 178.64 102.347 178.64ZM99.3386 189.04C100.096 189.04 100.677 188.784 101.083 188.272C101.499 187.749 101.707 187.013 101.707 186.064C101.707 185.115 101.499 184.384 101.083 183.872C100.677 183.36 100.096 183.104 99.3386 183.104C98.5813 183.104 97.9893 183.36 97.5626 183.872C97.1466 184.384 96.9386 185.104 96.9386 186.032C96.9386 186.981 97.1466 187.723 97.5626 188.256C97.9893 188.779 98.5813 189.04 99.3386 189.04ZM108.587 182.016C110.539 182.016 111.515 183.04 111.515 185.088V189.44C111.515 189.632 111.456 189.787 111.339 189.904C111.232 190.021 111.083 190.08 110.891 190.08C110.699 190.08 110.544 190.021 110.427 189.904C110.31 189.787 110.251 189.632 110.251 189.44V188.672C110.048 189.131 109.739 189.488 109.323 189.744C108.907 189.989 108.427 190.112 107.883 190.112C107.382 190.112 106.918 190.011 106.491 189.808C106.075 189.605 105.744 189.323 105.499 188.96C105.254 188.597 105.131 188.197 105.131 187.76C105.131 187.173 105.28 186.72 105.579 186.4C105.878 186.069 106.368 185.835 107.051 185.696C107.734 185.547 108.683 185.472 109.899 185.472H110.251V184.944C110.251 184.304 110.118 183.835 109.851 183.536C109.595 183.237 109.174 183.088 108.587 183.088C107.862 183.088 107.126 183.285 106.379 183.68C106.091 183.861 105.888 183.952 105.771 183.952C105.643 183.952 105.536 183.904 105.451 183.808C105.366 183.712 105.323 183.589 105.323 183.44C105.323 183.291 105.366 183.163 105.451 183.056C105.547 182.939 105.696 182.821 105.899 182.704C106.272 182.491 106.694 182.325 107.163 182.208C107.643 182.08 108.118 182.016 108.587 182.016ZM108.059 189.088C108.699 189.088 109.222 188.875 109.627 188.448C110.043 188.011 110.251 187.451 110.251 186.768V186.304H109.963C109.024 186.304 108.31 186.347 107.819 186.432C107.328 186.507 106.976 186.64 106.763 186.832C106.56 187.013 106.459 187.285 106.459 187.648C106.459 188.064 106.608 188.411 106.907 188.688C107.216 188.955 107.6 189.088 108.059 189.088ZM124.045 188.192C124.162 188.192 124.263 188.24 124.349 188.336C124.434 188.432 124.477 188.555 124.477 188.704C124.477 188.971 124.29 189.216 123.917 189.44C123.533 189.664 123.127 189.835 122.701 189.952C122.274 190.059 121.858 190.112 121.453 190.112C120.247 190.112 119.293 189.755 118.589 189.04C117.895 188.325 117.549 187.339 117.549 186.08C117.549 185.28 117.703 184.576 118.013 183.968C118.322 183.349 118.754 182.869 119.309 182.528C119.874 182.187 120.514 182.016 121.229 182.016C122.242 182.016 123.047 182.347 123.645 183.008C124.242 183.669 124.541 184.565 124.541 185.696C124.541 185.909 124.498 186.064 124.413 186.16C124.327 186.256 124.189 186.304 123.997 186.304H118.845C118.941 188.139 119.81 189.056 121.453 189.056C121.869 189.056 122.226 189.003 122.525 188.896C122.823 188.779 123.143 188.624 123.485 188.432C123.762 188.272 123.949 188.192 124.045 188.192ZM121.245 183.024C120.562 183.024 120.013 183.237 119.597 183.664C119.191 184.091 118.951 184.693 118.877 185.472H123.405C123.383 184.683 123.186 184.08 122.813 183.664C122.439 183.237 121.917 183.024 121.245 183.024ZM133.199 190.112C132.708 190.112 132.239 190.053 131.791 189.936C131.354 189.819 130.964 189.653 130.623 189.44C130.431 189.312 130.292 189.195 130.207 189.088C130.132 188.971 130.095 188.832 130.095 188.672C130.095 188.533 130.132 188.421 130.207 188.336C130.292 188.24 130.399 188.192 130.527 188.192C130.655 188.192 130.842 188.272 131.087 188.432C131.407 188.624 131.722 188.779 132.031 188.896C132.351 189.003 132.746 189.056 133.215 189.056C133.791 189.056 134.239 188.955 134.559 188.752C134.879 188.549 135.039 188.256 135.039 187.872C135.039 187.637 134.98 187.451 134.863 187.312C134.746 187.163 134.543 187.035 134.255 186.928C133.967 186.811 133.546 186.693 132.991 186.576C132.052 186.373 131.38 186.101 130.975 185.76C130.57 185.419 130.367 184.955 130.367 184.368C130.367 183.909 130.495 183.504 130.751 183.152C131.007 182.8 131.359 182.523 131.807 182.32C132.266 182.117 132.783 182.016 133.359 182.016C133.775 182.016 134.175 182.075 134.559 182.192C134.954 182.299 135.3 182.453 135.599 182.656C135.962 182.912 136.143 183.179 136.143 183.456C136.143 183.595 136.1 183.712 136.015 183.808C135.93 183.904 135.828 183.952 135.711 183.952C135.583 183.952 135.391 183.861 135.135 183.68C134.836 183.488 134.554 183.339 134.287 183.232C134.02 183.125 133.69 183.072 133.295 183.072C132.794 183.072 132.388 183.184 132.079 183.408C131.78 183.632 131.631 183.931 131.631 184.304C131.631 184.539 131.684 184.731 131.791 184.88C131.908 185.019 132.095 185.147 132.351 185.264C132.618 185.371 132.996 185.477 133.487 185.584C134.212 185.744 134.772 185.92 135.167 186.112C135.572 186.304 135.86 186.539 136.031 186.816C136.202 187.093 136.287 187.445 136.287 187.872C136.287 188.544 136.004 189.088 135.439 189.504C134.874 189.909 134.127 190.112 133.199 190.112ZM144.295 188.192C144.412 188.192 144.513 188.24 144.599 188.336C144.684 188.432 144.727 188.555 144.727 188.704C144.727 188.971 144.54 189.216 144.167 189.44C143.783 189.664 143.377 189.835 142.951 189.952C142.524 190.059 142.108 190.112 141.703 190.112C140.497 190.112 139.543 189.755 138.839 189.04C138.145 188.325 137.799 187.339 137.799 186.08C137.799 185.28 137.953 184.576 138.263 183.968C138.572 183.349 139.004 182.869 139.559 182.528C140.124 182.187 140.764 182.016 141.479 182.016C142.492 182.016 143.297 182.347 143.895 183.008C144.492 183.669 144.791 184.565 144.791 185.696C144.791 185.909 144.748 186.064 144.663 186.16C144.577 186.256 144.439 186.304 144.247 186.304H139.095C139.191 188.139 140.06 189.056 141.703 189.056C142.119 189.056 142.476 189.003 142.775 188.896C143.073 188.779 143.393 188.624 143.735 188.432C144.012 188.272 144.199 188.192 144.295 188.192ZM141.495 183.024C140.812 183.024 140.263 183.237 139.847 183.664C139.441 184.091 139.201 184.693 139.127 185.472H143.655C143.633 184.683 143.436 184.08 143.063 183.664C142.689 183.237 142.167 183.024 141.495 183.024ZM153.02 182.048C153.223 182.048 153.383 182.107 153.5 182.224C153.617 182.341 153.676 182.496 153.676 182.688V189.472C153.676 190.635 153.377 191.509 152.78 192.096C152.183 192.693 151.297 192.992 150.124 192.992C148.983 192.992 148.033 192.768 147.276 192.32C146.892 192.107 146.7 191.861 146.7 191.584C146.7 191.435 146.737 191.312 146.812 191.216C146.897 191.12 147.004 191.072 147.132 191.072C147.239 191.072 147.431 191.147 147.708 191.296C148.081 191.488 148.449 191.643 148.812 191.76C149.175 191.877 149.607 191.936 150.108 191.936C150.865 191.936 151.436 191.733 151.82 191.328C152.204 190.933 152.396 190.352 152.396 189.584V188.208C152.172 188.709 151.825 189.093 151.356 189.36C150.897 189.627 150.353 189.76 149.724 189.76C149.041 189.76 148.433 189.6 147.9 189.28C147.377 188.96 146.967 188.507 146.668 187.92C146.38 187.333 146.236 186.656 146.236 185.888C146.236 185.12 146.38 184.443 146.668 183.856C146.967 183.269 147.377 182.816 147.9 182.496C148.433 182.176 149.041 182.016 149.724 182.016C150.343 182.016 150.881 182.149 151.34 182.416C151.799 182.683 152.145 183.061 152.38 183.552V182.688C152.38 182.496 152.433 182.341 152.54 182.224C152.657 182.107 152.817 182.048 153.02 182.048ZM149.98 188.688C150.727 188.688 151.313 188.443 151.74 187.952C152.167 187.451 152.38 186.763 152.38 185.888C152.38 185.024 152.167 184.347 151.74 183.856C151.324 183.355 150.737 183.104 149.98 183.104C149.223 183.104 148.625 183.355 148.188 183.856C147.761 184.347 147.548 185.024 147.548 185.888C147.548 186.763 147.761 187.451 148.188 187.952C148.625 188.443 149.223 188.688 149.98 188.688ZM161.995 182.048C162.198 182.048 162.352 182.107 162.459 182.224C162.576 182.341 162.635 182.496 162.635 182.688V189.456C162.635 189.637 162.576 189.787 162.459 189.904C162.352 190.021 162.198 190.08 161.995 190.08C161.803 190.08 161.648 190.027 161.531 189.92C161.424 189.803 161.371 189.653 161.371 189.472V188.672C161.126 189.141 160.779 189.499 160.331 189.744C159.894 189.989 159.398 190.112 158.843 190.112C157.915 190.112 157.216 189.856 156.747 189.344C156.278 188.821 156.043 188.053 156.043 187.04V182.688C156.043 182.496 156.102 182.341 156.219 182.224C156.336 182.107 156.496 182.048 156.699 182.048C156.902 182.048 157.056 182.107 157.163 182.224C157.28 182.341 157.339 182.496 157.339 182.688V187.008C157.339 187.701 157.478 188.213 157.755 188.544C158.032 188.864 158.47 189.024 159.067 189.024C159.75 189.024 160.299 188.805 160.715 188.368C161.131 187.92 161.339 187.333 161.339 186.608V182.688C161.339 182.496 161.398 182.341 161.515 182.224C161.632 182.107 161.792 182.048 161.995 182.048ZM168.9 182.048C169.348 182.016 169.572 182.197 169.572 182.592C169.572 182.763 169.524 182.901 169.428 183.008C169.332 183.104 169.166 183.163 168.932 183.184L168.452 183.232C167.737 183.296 167.204 183.552 166.852 184C166.51 184.437 166.34 184.955 166.34 185.552V189.44C166.34 189.653 166.281 189.813 166.164 189.92C166.046 190.027 165.892 190.08 165.7 190.08C165.508 190.08 165.348 190.027 165.22 189.92C165.102 189.803 165.044 189.643 165.044 189.44V182.688C165.044 182.485 165.108 182.331 165.236 182.224C165.364 182.107 165.518 182.048 165.7 182.048C165.87 182.048 166.014 182.107 166.132 182.224C166.249 182.331 166.308 182.48 166.308 182.672V183.568C166.532 183.099 166.846 182.741 167.252 182.496C167.668 182.251 168.142 182.107 168.676 182.064L168.9 182.048ZM173.806 182.016C175.758 182.016 176.734 183.04 176.734 185.088V189.44C176.734 189.632 176.675 189.787 176.558 189.904C176.451 190.021 176.302 190.08 176.11 190.08C175.918 190.08 175.763 190.021 175.646 189.904C175.529 189.787 175.47 189.632 175.47 189.44V188.672C175.267 189.131 174.958 189.488 174.542 189.744C174.126 189.989 173.646 190.112 173.102 190.112C172.601 190.112 172.137 190.011 171.71 189.808C171.294 189.605 170.963 189.323 170.718 188.96C170.473 188.597 170.35 188.197 170.35 187.76C170.35 187.173 170.499 186.72 170.798 186.4C171.097 186.069 171.587 185.835 172.27 185.696C172.953 185.547 173.902 185.472 175.118 185.472H175.47V184.944C175.47 184.304 175.337 183.835 175.07 183.536C174.814 183.237 174.393 183.088 173.806 183.088C173.081 183.088 172.345 183.285 171.598 183.68C171.31 183.861 171.107 183.952 170.99 183.952C170.862 183.952 170.755 183.904 170.67 183.808C170.585 183.712 170.542 183.589 170.542 183.44C170.542 183.291 170.585 183.163 170.67 183.056C170.766 182.939 170.915 182.821 171.118 182.704C171.491 182.491 171.913 182.325 172.382 182.208C172.862 182.08 173.337 182.016 173.806 182.016ZM173.278 189.088C173.918 189.088 174.441 188.875 174.846 188.448C175.262 188.011 175.47 187.451 175.47 186.768V186.304H175.182C174.243 186.304 173.529 186.347 173.038 186.432C172.547 186.507 172.195 186.64 171.982 186.832C171.779 187.013 171.678 187.285 171.678 187.648C171.678 188.064 171.827 188.411 172.126 188.688C172.435 188.955 172.819 189.088 173.278 189.088Z" fill="white"/>
<rect x="1" y="227" width="239" height="46" rx="7" fill="#FD377E"/>
<path d="M100.034 243.864V255.5H98.2784V243.864H100.034ZM104.153 250.318V255.5H102.455V246.773H104.085V248.193H104.193C104.394 247.731 104.708 247.36 105.136 247.08C105.568 246.799 106.112 246.659 106.767 246.659C107.362 246.659 107.883 246.784 108.33 247.034C108.777 247.28 109.123 247.648 109.369 248.136C109.616 248.625 109.739 249.229 109.739 249.949V255.5H108.04V250.153C108.04 249.521 107.875 249.027 107.545 248.67C107.216 248.311 106.763 248.131 106.188 248.131C105.794 248.131 105.443 248.216 105.136 248.386C104.833 248.557 104.593 248.807 104.415 249.136C104.241 249.462 104.153 249.856 104.153 250.318ZM112.017 255.5V246.773H113.716V255.5H112.017ZM112.875 245.426C112.58 245.426 112.326 245.328 112.114 245.131C111.905 244.93 111.801 244.691 111.801 244.415C111.801 244.134 111.905 243.896 112.114 243.699C112.326 243.498 112.58 243.398 112.875 243.398C113.17 243.398 113.422 243.498 113.631 243.699C113.843 243.896 113.949 244.134 113.949 244.415C113.949 244.691 113.843 244.93 113.631 245.131C113.422 245.328 113.17 245.426 112.875 245.426ZM119.678 255.676C118.833 255.676 118.106 255.485 117.496 255.102C116.89 254.716 116.424 254.184 116.098 253.506C115.772 252.828 115.609 252.051 115.609 251.176C115.609 250.29 115.776 249.508 116.109 248.83C116.443 248.148 116.912 247.616 117.518 247.233C118.125 246.85 118.839 246.659 119.661 246.659C120.323 246.659 120.914 246.782 121.433 247.028C121.952 247.271 122.371 247.612 122.689 248.051C123.011 248.491 123.202 249.004 123.263 249.591H121.609C121.518 249.182 121.31 248.83 120.984 248.534C120.662 248.239 120.231 248.091 119.689 248.091C119.215 248.091 118.801 248.216 118.445 248.466C118.092 248.712 117.818 249.064 117.621 249.523C117.424 249.977 117.325 250.515 117.325 251.136C117.325 251.773 117.422 252.322 117.615 252.784C117.808 253.246 118.081 253.604 118.433 253.858C118.789 254.112 119.208 254.239 119.689 254.239C120.011 254.239 120.303 254.18 120.564 254.062C120.829 253.941 121.051 253.769 121.229 253.545C121.411 253.322 121.537 253.053 121.609 252.739H123.263C123.202 253.303 123.018 253.807 122.712 254.25C122.405 254.693 121.994 255.042 121.479 255.295C120.967 255.549 120.367 255.676 119.678 255.676ZM125.08 255.5V246.773H126.778V255.5H125.08ZM125.938 245.426C125.642 245.426 125.388 245.328 125.176 245.131C124.968 244.93 124.864 244.691 124.864 244.415C124.864 244.134 124.968 243.896 125.176 243.699C125.388 243.498 125.642 243.398 125.938 243.398C126.233 243.398 126.485 243.498 126.693 243.699C126.905 243.896 127.011 244.134 127.011 244.415C127.011 244.691 126.905 244.93 126.693 245.131C126.485 245.328 126.233 245.426 125.938 245.426ZM131.604 255.693C131.051 255.693 130.551 255.591 130.104 255.386C129.657 255.178 129.303 254.877 129.041 254.483C128.784 254.089 128.655 253.606 128.655 253.034C128.655 252.542 128.75 252.136 128.939 251.818C129.128 251.5 129.384 251.248 129.706 251.062C130.028 250.877 130.388 250.737 130.786 250.642C131.183 250.547 131.589 250.475 132.001 250.426C132.524 250.366 132.948 250.316 133.274 250.278C133.6 250.237 133.837 250.17 133.984 250.08C134.132 249.989 134.206 249.841 134.206 249.636V249.597C134.206 249.1 134.066 248.716 133.786 248.443C133.509 248.17 133.096 248.034 132.547 248.034C131.975 248.034 131.524 248.161 131.195 248.415C130.869 248.665 130.643 248.943 130.518 249.25L128.922 248.886C129.111 248.356 129.388 247.928 129.751 247.602C130.119 247.273 130.541 247.034 131.018 246.886C131.496 246.735 131.998 246.659 132.524 246.659C132.873 246.659 133.242 246.701 133.632 246.784C134.026 246.864 134.393 247.011 134.734 247.227C135.079 247.443 135.361 247.752 135.581 248.153C135.801 248.551 135.911 249.068 135.911 249.705V255.5H134.251V254.307H134.183C134.073 254.527 133.909 254.742 133.689 254.955C133.469 255.167 133.187 255.343 132.842 255.483C132.498 255.623 132.085 255.693 131.604 255.693ZM131.973 254.33C132.443 254.33 132.844 254.237 133.178 254.051C133.515 253.866 133.77 253.623 133.945 253.324C134.123 253.021 134.212 252.697 134.212 252.352V251.227C134.151 251.288 134.034 251.345 133.859 251.398C133.689 251.447 133.494 251.491 133.274 251.528C133.054 251.562 132.84 251.595 132.632 251.625C132.424 251.652 132.25 251.674 132.109 251.693C131.78 251.735 131.479 251.805 131.206 251.903C130.937 252.002 130.721 252.144 130.558 252.33C130.399 252.511 130.32 252.754 130.32 253.057C130.32 253.477 130.475 253.795 130.786 254.011C131.096 254.223 131.492 254.33 131.973 254.33ZM138.173 255.5V246.773H139.815V248.159H139.906C140.065 247.689 140.346 247.32 140.747 247.051C141.152 246.778 141.611 246.642 142.122 246.642C142.228 246.642 142.353 246.646 142.497 246.653C142.645 246.661 142.76 246.67 142.844 246.682V248.307C142.776 248.288 142.654 248.267 142.48 248.244C142.306 248.218 142.132 248.205 141.957 248.205C141.556 248.205 141.198 248.29 140.884 248.46C140.573 248.627 140.327 248.86 140.145 249.159C139.963 249.455 139.872 249.792 139.872 250.17V255.5H138.173Z" fill="white"/>
<rect x="1" y="227" width="239" height="46" rx="7" stroke="#FD377E" stroke-width="2"/>
</svg>
